<svg xmlns="http://www.w3.org/2000/svg" width="40" height="40" viewBox="0 0 40 40">
  <!-- Background circle -->
  <circle cx="20" cy="20" r="18" fill="#4F46E5" stroke="#3730A3" stroke-width="1"/>
  
  <!-- Keyboard icon (simplified) -->
  <g transform="translate(10, 12)">
    <!-- Top row -->
    <rect x="0" y="0" width="3" height="3" rx="0.5" fill="white" opacity="0.9"/>
    <rect x="4" y="0" width="3" height="3" rx="0.5" fill="white" opacity="0.9"/>
    <rect x="8" y="0" width="3" height="3" rx="0.5" fill="white" opacity="0.9"/>
    <rect x="12" y="0" width="3" height="3" rx="0.5" fill="white" opacity="0.9"/>
    <rect x="16" y="0" width="3" height="3" rx="0.5" fill="white" opacity="0.9"/>
    
    <!-- Middle row -->
    <rect x="0" y="4" width="3" height="3" rx="0.5" fill="white" opacity="0.9"/>
    <rect x="4" y="4" width="3" height="3" rx="0.5" fill="white" opacity="0.9"/>
    <rect x="8" y="4" width="3" height="3" rx="0.5" fill="#FCD34D"/>
    <rect x="12" y="4" width="3" height="3" rx="0.5" fill="white" opacity="0.9"/>
    <rect x="16" y="4" width="3" height="3" rx="0.5" fill="white" opacity="0.9"/>
    
    <!-- Bottom row -->
    <rect x="0" y="8" width="3" height="3" rx="0.5" fill="white" opacity="0.9"/>
    <rect x="4" y="8" width="3" height="3" rx="0.5" fill="white" opacity="0.9"/>
    <rect x="8" y="8" width="3" height="3" rx="0.5" fill="white" opacity="0.9"/>
    <rect x="12" y="8" width="3" height="3" rx="0.5" fill="white" opacity="0.9"/>
    <rect x="16" y="8" width="3" height="3" rx="0.5" fill="white" opacity="0.9"/>
    
    <!-- Spacebar -->
    <rect x="4" y="12" width="11" height="3" rx="0.5" fill="white" opacity="0.9"/>
  </g>
</svg>
